<svg width="18" height="18" viewBox="0 0 18 18" fill="none" xmlns="http://www.w3.org/2000/svg">
<path d="M11.2617 0.26001C7.83875 0.26001 5.05639 3.08001 5.05639 6.52001C5.05639 7.98001 5.55682 9.30002 6.37751 10.38L0.492521 16.32C0.152232 16.68 0.152232 17.24 0.492521 17.58C0.672674 17.76 0.892862 17.84 1.11305 17.84C1.35325 17.84 1.57344 17.76 1.75359 17.58L7.63859 11.62C8.65945 12.36 9.90051 12.78 11.2416 12.78C14.6645 12.78 17.4469 9.96001 17.4469 6.52001C17.4669 3.06001 14.6846 0.26001 11.2617 0.26001ZM11.2617 11.2C8.7195 11.2 6.65775 9.10001 6.65775 6.52001C6.65775 3.94001 8.7195 1.84001 11.2617 1.84001C13.8038 1.84001 15.8656 3.94001 15.8656 6.52001C15.8656 9.10001 13.8038 11.2 11.2617 11.2ZM14.3643 6.60001C14.3243 6.94001 14.024 7.20001 13.6837 7.20001C13.6437 7.20001 13.6237 7.20001 13.5836 7.20001C13.2033 7.14001 12.9431 6.80001 12.9831 6.42001C13.1232 5.38001 11.9623 4.84001 11.9022 4.82001C11.5619 4.66001 11.4018 4.24001 11.5619 3.90001C11.722 3.56001 12.1224 3.40001 12.4827 3.54001C12.5628 3.56001 14.6445 4.52001 14.3643 6.60001ZM12.9031 8.12001C13.0432 8.26001 13.1433 8.48002 13.1433 8.68002C13.1433 8.90002 13.0632 9.10001 12.9031 9.24002C12.7629 9.38002 12.5427 9.48002 12.3426 9.48002C12.1424 9.48002 11.9222 9.40001 11.7821 9.24002C11.642 9.10001 11.5419 8.88002 11.5419 8.68002C11.5419 8.48002 11.622 8.26001 11.7821 8.12001C11.9222 7.98001 12.1424 7.88002 12.3426 7.88002C12.5427 7.88002 12.7429 7.96001 12.9031 8.12001Z" fill="#1E0606"/>
</svg>
